<?xml version="1.0" encoding="utf-8"?>
<!-- Generator: Adobe Illustrator 25.2.0, SVG Export Plug-In . SVG Version: 6.00 Build 0)  -->
<svg version="1.1" id="Layer_1" xmlns="http://www.w3.org/2000/svg" xmlns:xlink="http://www.w3.org/1999/xlink" x="0px" y="0px"
	 viewBox="0 0 94 22" style="enable-background:new 0 0 94 22;" xml:space="preserve">
<style type="text/css">
	.st0{fill:#26A9E0;}
	.st1{fill:#404042;}
</style>
<g>
	<g>
		<g>
			<path class="st0" d="M0,0.3h2.8v16.9H0V0.3z"/>
			<path class="st1" d="M29,17.2L23.2,0.3h3l4.5,13.5l4.5-13.5h3l-5.9,16.9H29z"/>
		</g>
		<g>
			<path class="st0" d="M20.3,2.6c-3.4-3.4-9-3.4-12.4,0s-3.4,9,0,12.4c2.9,2.9,7.4,3.3,10.7,1.3l-2-2c-2.2,1-5,0.6-6.8-1.2
				c-2.4-2.4-2.4-6.2,0-8.6s6.2-2.4,8.6,0c1.8,1.8,2.3,4.6,1.2,6.8l2,2C23.6,9.9,23.2,5.5,20.3,2.6z"/>
			<rect x="16.8" y="7.9" transform="matrix(0.7071 -0.7071 0.7071 0.7071 -3.7949 16.6883)" class="st0" width="2.9" height="10"/>
		</g>
	</g>
	<g>
		<path class="st1" d="M42.2,2.9c-0.3,0.3-0.7,0.5-1.2,0.5c-0.4,0-0.8-0.2-1.2-0.5c-0.3-0.3-0.5-0.7-0.5-1.2c0-0.4,0.2-0.8,0.5-1.2
			C40.2,0.2,40.5,0,41,0s0.9,0.2,1.2,0.5s0.5,0.7,0.5,1.2S42.5,2.5,42.2,2.9z M39.7,17.2v-12h2.6v12H39.7z"/>
		<path class="st1" d="M48.4,14.7h5.8v2.5h-9.4v-1.7l5.6-7.8H45V5.2h9v1.7L48.4,14.7z"/>
		<path class="st1" d="M64.8,5.2h2.8L63,17.6c-1.2,3.1-3.1,4.6-5.9,4.4v-2.4c0.8,0,1.5-0.1,2-0.5s0.9-1,1.2-1.8l0.1-0.2L55.3,5.2
			h2.8l3.6,8.7L64.8,5.2z"/>
		<path class="st1" d="M74.4,17.5c-1.8,0-3.3-0.6-4.5-1.8C68.6,14.5,68,13,68,11.2s0.6-3.3,1.9-4.5c1.2-1.2,2.7-1.8,4.5-1.8
			s3.3,0.6,4.5,1.8s1.8,2.7,1.8,4.5s-0.6,3.3-1.8,4.5C77.6,16.9,76.1,17.5,74.4,17.5z M71.7,13.9c0.7,0.7,1.6,1.1,2.7,1.1
			s1.9-0.4,2.7-1.1c0.7-0.7,1.1-1.6,1.1-2.7s-0.4-2-1.1-2.7s-1.6-1.1-2.7-1.1s-1.9,0.4-2.7,1.1c-0.7,0.7-1.1,1.6-1.1,2.7
			S71,13.2,71.7,13.9z"/>
		<path class="st1" d="M89.4,4.9c1.4,0,2.5,0.4,3.3,1.3C93.6,7.1,94,8.3,94,9.8v7.4h-2.6v-7.1c0-0.9-0.2-1.6-0.7-2.1s-1.1-0.7-2-0.7
			S87,7.6,86.5,8.2c-0.6,0.6-0.8,1.4-0.8,2.6v6.4h-2.6v-12h2.6v1.5C86.4,5.5,87.7,4.9,89.4,4.9z"/>
	</g>
</g>
</svg>
